
<global>
amp_veltrack=0
ampeg_release=0.35
</global>

<group>
group_label=PP
lpc_hicc1=42
lpc_locc1=0

<region>
hikey=a3
hivel=127
lokey=g#3
lovel=0
lpc=CUReQeRvEcLUJxtC9BKewT0ib0BRJWHAr8PzQIcEksB2LJK/JsBQQEcWTMDbF9c/rzY5P14pSMBsiopAIOMBwAci1b5QDtk+ZmymPzs6oL89HD2+X2jIv6sdUkAIN7W/
lpc_rms=-37.97
pitch_keycenter=a3
sample=SoloViolin1_tenuto_eighth_PP_A3.opus
</region>

<region>
hikey=a4
hivel=127
lokey=g#4
lovel=0
lpc=DdOHQXIrNMIFMk1CXTb5weGnXkGW7lHB+hJTQStHAMHuiX1AwqSwvUZ3xMAJoz1BTeF7wXgGR0GkgyzA2NgWwKZVJD+AxO074ep1QFpId8D5k6W/KcKSQK//OcBdTVI/
lpc_rms=-35.90
pitch_keycenter=a4
sample=SoloViolin1_tenuto_eighth_PP_A4.opus
</region>

<region>
hikey=a5
hivel=127
lokey=g#5
lovel=0
lpc=TajkQON3/cCxJ8FADz4SwDMNckDhh0+/oEqtvgvLAEBUBLG9eCX7P5L4r75ECD4/56vbPk8crj+mutM/lsPavxZYGUAnoce8Jj3RPzJqDT70sgU/z5KMvOej8z+NoI0/
lpc_rms=-36.81
pitch_keycenter=a5
sample=SoloViolin1_tenuto_eighth_PP_A5.opus
</region>

<region>
hikey=a6
hivel=127
lokey=g#6
lovel=0
lpc=iBNFQR4nGMHBvY9AYj3wPVMvFT/ZuJc9xmNRvzhaXj9UceW9Y8GLP9MhG0CpAWu/PXPMP+uJOsAemPfAGt0MQQ1HesCBCIE+SV2LPpT82z6CtNA/ogGiv2Ys4j/jwRPA
lpc_rms=-36.65
pitch_keycenter=a6
sample=SoloViolin1_tenuto_eighth_PP_A6.opus
</region>

<region>
hikey=b3
hivel=127
lokey=a#3
lovel=0
lpc=+iDXQR8Ol8ISv7JCErJdwpSbgkF2dKvAbnEtQSwtLMGFe1JA3OSYQDa+KsFs/zRBmHbnwJs1iD08biZB/42dwQh6tkF1aW/Be7LcQAYTt8C0hcxApo/dwNaInEDHFau/
lpc_rms=-33.41
pitch_keycenter=b3
sample=SoloViolin1_tenuto_eighth_PP_B3.opus
</region>

<region>
hikey=b4
hivel=127
lokey=a#4
lovel=0
lpc=N3VYQXZQ28GQ38BBuOVPwW0c/UDqP73AR+lSPSzFg0CE6Y6+B8uEv5TWb8BjULdAuWv9wKyrB0G3yJrA37SuP3uWrz9zKQTA6+YxQIsBAsC6dII+5c5bP95gQL+HJ44/
lpc_rms=-33.47
pitch_keycenter=b4
sample=SoloViolin1_tenuto_eighth_PP_B4.opus
</region>

<region>
hikey=b5
hivel=127
lokey=a#5
lovel=0
lpc=wWctQau/RMGNFSlBRfXswCDo0kCjiILAvZAtQB+UHr+2kgM/C5Uavv6r+j92xdu/uIbxP2S9yr/OxUZAqeQHwJPvtz/x0xK+UhqzP3cMHMAXe5RAGJ+fwG311UAwEeDA
lpc_rms=-36.68
pitch_keycenter=b5
sample=SoloViolin1_tenuto_eighth_PP_B5.opus
</region>

<region>
hikey=b6
hivel=127
lokey=a#6
lovel=0
lpc=LjBmQbZ4T8GPSJJA/gaXv26fhUBkjI3AdbVWQNXF8r8hgCNArvKJQGhUCMDQH8++NeFOwS87IEHLmoE+0Wawv2iRnb9+ZlVAgt2Jv+6wuz+oi9S/cysPwHkSFz/oWytA
lpc_rms=-38.71
pitch_keycenter=b6
sample=SoloViolin1_tenuto_eighth_PP_B6.opus
</region>

<region>
hikey=c#4
hivel=127
lokey=c4
lovel=0
lpc=C5DVQW3GkcLa+KpC5IFcwk87k0FXvWfAeCABP4wmBEA5KW3A0KDgQGAeS8HHPVNBRY4awdBMlUBrIzFAAjq3wGvWt0DsrlvAxO+0P5eXhj+d51nAuNXVP2/4Gr7nvCM9
lpc_rms=-28.87
pitch_keycenter=c#4
sample=SoloViolin1_tenuto_eighth_PP_C#4.opus
</region>

<region>
hikey=c#5
hivel=127
lokey=c5
lovel=0
lpc=X6XaQArFW8EKj1JB9nLxwAy0pEAsAbzAvTWTQDVE1L/b36w/mCilv5gGS78nqp0/P3Bfv0soqj9ioO6/7MPtPzbi4b2WqrO/ckn+P1usGL/1ctO/G9ZXQBHDAsCh/VU/
lpc_rms=-39.70
pitch_keycenter=c#5
sample=SoloViolin1_tenuto_eighth_PP_C#5.opus
</region>

<region>
hikey=c#6
hivel=127
lokey=c6
lovel=0
lpc=rjXzQKBGzMBZcAZAiviBv+ipWD+3PUO/Z5ddP7dSnb6SwJo+TaUMvxhwzj9G3Za/PImcPh1izD1i0ic/Mr3lvgxyJT14pwM/bTR6PstAib/UqBNAAS+NwFsq8L9HPjRA
lpc_rms=-44.24
pitch_keycenter=c#6
sample=SoloViolin1_tenuto_eighth_PP_C#6.opus
</region>

<region>
hikey=E7
hivel=127
lokey=c7
lovel=0
lpc=AqoZQXOKB8GAoWtAmlrGv1vptj9J+um+HtovP9D0lj4sZ7E/hLLQP0bdRMAg/ObAwkkRQRF3Y8BWfStAFHfzv7hy/D/9+5i/H31jP6cA4L804jw+y5EiPwkQpD9RW7y/
lpc_rms=-42.95
pitch_keycenter=C#7
sample=SoloViolin1_tenuto_eighth_PP_C#7.opus
</region>

<region>
hikey=d#4
hivel=127
lokey=d4
lovel=0
lpc=Ag0MQdnyt8HapdRBoYaJwfze4EBxrEDA274lQN5Oxb9PDEW/tXJaQGANt8DzsrxAgrxlwHfKHT4Ypes/OWGpv75JgT+kU+e/H0UJQHKgvb8KPxY/L9/KvtaW0z4hMDY9
lpc_rms=-44.08
pitch_keycenter=d#4
sample=SoloViolin1_tenuto_eighth_PP_D#4.opus
</region>

<region>
hikey=d#5
hivel=127
lokey=d5
lovel=0
lpc=8UGSQNOJBMGgS8dACRRewLrOe0C086nAsVSZQKTOFMA/AKs/xZTqv8hmM0DP6/m/9ftGvtfgOj9C2ic/GiNDv6dTHb8Fo5Y/Bc3zvbI0xj7ME5+/M+dDP7iOLb6xDp0+
lpc_rms=-41.03
pitch_keycenter=d#5
sample=SoloViolin1_tenuto_eighth_PP_D#5.opus
</region>

<region>
hikey=d#6
hivel=127
lokey=d6
lovel=0
lpc=naeOQUkVj8FfERhBC0mTwIgqgUDt6O+/4NkzQORUNsACNVxAYTyev3BqPj9dBrA+8vFfP8G8I7+BQ/0/ITjLv8W1XUA7mmzAVtmLQODmgsENRipBkpYmv4xZPL+BvaK+
lpc_rms=-35.85
pitch_keycenter=d#6
sample=SoloViolin1_tenuto_eighth_PP_D#6.opus
</region>

<region>
hikey=f4
hivel=127
lokey=e4
lovel=0
lpc=uEYoQRBHzcHZxtFBgltvweGb50D7pdvA9bqeQCn4j78mboO8j/cUQAjNpsAlOHlAzsH5votv7r8Je9M/fm0vv0t/mT+62hLAf2J9QPrZRsCQhJ6/+CaBQH95U8C4AKY/
lpc_rms=-38.70
pitch_keycenter=f4
sample=SoloViolin1_tenuto_eighth_PP_F4.opus
</region>

<region>
hikey=f5
hivel=127
lokey=e5
lovel=0
lpc=wBigQAA26MAkaJtA7CxVwJrWh0B4inXAsk0PQDotUr98M3c/HtWFP9t9AsC2Uvc/5Z4FwCGFXD+3w8A+ibyIPyh9Fb8mBke/2YrJP1cPar7jrrA+CY8DwPCwiT+yqYg/
lpc_rms=-42.50
pitch_keycenter=f5
sample=SoloViolin1_tenuto_eighth_PP_F5.opus
</region>

<region>
hikey=f6
hivel=127
lokey=e6
lovel=0
lpc=J7DrQMtCusAN/XFA9UAIwPV5LUBctyPACtG0PiLLqz7DW4i8XaAaPxI4C7+CW7E/x0Rbv3eCeD+fOM28KjY0PnpcXD/tCMbAE5lKQKPrNb+ZLsc+oUBRv4o+jj/6n3o/
lpc_rms=-43.20
pitch_keycenter=f6
sample=SoloViolin1_tenuto_eighth_PP_F6.opus
</region>

<region>
hivel=127
key=g3
lovel=0
lpc=mxiiQWyWYMIGrX5CZewJwn29BkF59QzBrTSEQT9ZO8HMLfE9tSIGQYkISMHD3RRBEaRGwD60rz/zioU/orL4wBIRP0ESpQfBuYxFQDB3PcBQ3blAOkaswCAX6z9+IuQ+
lpc_rms=-36.43
sample=SoloViolin1_tenuto_eighth_PP_G3.opus
</region>

<region>
hikey=g4
hivel=127
lokey=f#4
lovel=0
lpc=n5R6QTqiJ8JTakNCnBsIwrgwqkGOq6XBtHOaQfvbMcExQoBAFrLUP4DsxcBNhs5Aj/qDwFR8t7/tg+pAIN0GwRh3y0B6c5rABuy5QPv2j8CkAYW/5iCpQHyssMAyKy9A
lpc_rms=-33.24
pitch_keycenter=g4
sample=SoloViolin1_tenuto_eighth_PP_G4.opus
</region>

<region>
hikey=g5
hivel=127
lokey=f#5
lovel=0
lpc=uiygQGbC88D0YqZAZiMBwD8HPkDqQxHADtszP9gM4T6vShm/vTkNQOI9U7/8ZQK/maLfvVzkPz/DEvk/b80nwAFc3j9y3Gs+NB+xv7cV/T9RfHG/cXX+P50PR8BCryJA
lpc_rms=-39.00
pitch_keycenter=g5
sample=SoloViolin1_tenuto_eighth_PP_G5.opus
</region>

<region>
hikey=g6
hivel=127
lokey=f#6
lovel=0
lpc=3ilFQYd318Cs4RQ/Jajbv4isjj+D3gFA6ihvPyp/aL8kUOA9CndIP/Ikwj2XB4I/3H3/PreCS7556AZAI/IcwbnDjz9voYpABWJQvpFbyj88Kh3AjgMAv7GDmz+2Dx4/
lpc_rms=-36.26
pitch_keycenter=g6
sample=SoloViolin1_tenuto_eighth_PP_G6.opus
</region>
</group>

<group>
group_label=MF
lpc_hicc1=84
lpc_locc1=43

<region>
hikey=a3
hivel=127
lokey=g#3
lovel=0
lpc=NlxRQRy3CsK+PB5CMRPAwe5c2UCyNny/2z2fP+QbJj30DbW/C2cwPwfYor8hF2FAMXGEwAK6mj6tDrpAm2D0wEYzpUBk5h/AgKKjP9mDIz90qpe/9V+Yv0pGEUCwn0u/
lpc_rms=-30.84
pitch_keycenter=a3
sample=SoloViolin1_tenuto_eighth_MF_A3.opus
</region>

<region>
hikey=a4
hivel=127
lokey=g#4
lovel=0
lpc=GbJzQXOsGcKyfitCqr/rwXIMkEHKaWrBLdknQUmZjsDGtwRAAdUawBretD9uopg9NAY7vylgy7+wAqVAb22VwMy2MEAvZ7S/Y2bzPmhIKT72FIo/TNNfwJhWUEAeiiu/
lpc_rms=-25.55
pitch_keycenter=a4
sample=SoloViolin1_tenuto_eighth_MF_A4.opus
</region>

<region>
hikey=a5
hivel=127
lokey=g#5
lovel=0
lpc=DuMhQdevPcERozFBXDiiwPDkq0BADIY+xf2tv3iOVkC2Zr8/yns7Pfl0LT+qzF5A1EsfwO9Kj0DbolQ+0PKiv/xhw0C7gIzAuPePQFDlGEAz6EfAfqyQQDgYhr/6s2pA
lpc_rms=-27.69
pitch_keycenter=a5
sample=SoloViolin1_tenuto_eighth_MF_A5.opus
</region>

<region>
hikey=a6
hivel=127
lokey=g#6
lovel=0
lpc=ZUaeQby8cMH+VkJA0kf5QAViDL8efwJAwCHZP5nPlL82XG5A6ayYQHeHKUAc80DAjPLgQL9QV8HrAoTA/7tTQeJ9B8FddxzAqxuhvgT02z2HyXa+zriyPcUWh8BsbA/A
lpc_rms=-26.72
pitch_keycenter=a6
sample=SoloViolin1_tenuto_eighth_MF_A6.opus
</region>

<region>
hikey=b3
hivel=127
lokey=a#3
lovel=0
lpc=Ii3XQc3Yj8KnF59CW441wlduQEEJCLXApmT8QAp5aT8mGBvBBZYNQWId38AHnARBNxUiwfQN4UDUmYRAsxE/waI6K0FdFKDAsyJcQIkkfMBt4k9AtPp/wP+KMkDLVu6+
lpc_rms=-25.40
pitch_keycenter=b3
sample=SoloViolin1_tenuto_eighth_MF_B3.opus
</region>

<region>
hikey=b4
hivel=127
lokey=a#4
lovel=0
lpc=0RJYQfql/MF3pu9BQ/F9wbk8CkEA8rrAIDAIwIDaC0Hn3sPA1daXQL6jD8FRogZBxUqpwMoQsEDeXxfAwNyZwN/TCUHJ37HA3ZuFPzIwfL4+hXY/2NEUP+Pw3L/0L5Q/
lpc_rms=-24.04
pitch_keycenter=b4
sample=SoloViolin1_tenuto_eighth_MF_B4.opus
</region>

<region>
hikey=b5
hivel=127
lokey=a#5
lovel=0
lpc=YllBQQpLQMGsmDxBYo7CwA52nkC91wLARJSkPwDjIEC4UKW+8ReYPy/ZE0A29Ku9keWlPy9UTr/mgE9AXiGMv1bwuj/mXOM/jtRjP18y7L6kO3RAmfeEwIWu5kAictLA
lpc_rms=-27.37
pitch_keycenter=b5
sample=SoloViolin1_tenuto_eighth_MF_B5.opus
</region>

<region>
hikey=b6
hivel=127
lokey=a#6
lovel=0
lpc=viBKQSk1+8AhMSlAX5Q3QDVxCT6tMHnAyLjxQH0Mk8Ce4bY/+BW7QICde7/9c4i/+EMvwca+oUADzt0/71dkwLLHRr1G3rJAaIq7wKc8PEAIOtk/3yigwFEQc77JaXJA
lpc_rms=-31.14
pitch_keycenter=b6
sample=SoloViolin1_tenuto_eighth_MF_B6.opus
</region>

<region>
hikey=c#4
hivel=127
lokey=c4
lovel=0
lpc=xCcEQgU4tcKd49BCLhGAwrJblkG20obAPUHkQB64HME8ByhBp0gUwaLQX0BnnZs/G8m4Ptg6t8AV0jVBEEZHwactREHD7xbBrS2iQJnKej8Jvb/AkVWVQHnSQ8BJnNc/
lpc_rms=-24.68
pitch_keycenter=c#4
sample=SoloViolin1_tenuto_eighth_MF_C#4.opus
</region>

<region>
hikey=c#5
hivel=127
lokey=c5
lovel=0
lpc=ixe+QPmOS8FjGE9B+yIJwUa2xEDFpdHA7SzMQK5tocDaeU5AzdKjv7mm7r2zQEk/HMpCvykJEz/UrK8+vs+qv4GHBEAlYcm/DxgUP/zG6zz36Y4+f9XCvuOaar3UqP8+
lpc_rms=-29.89
pitch_keycenter=c#5
sample=SoloViolin1_tenuto_eighth_MF_C#5.opus
</region>

<region>
hikey=c#6
hivel=127
lokey=c6
lovel=0
lpc=ymD1QOUqfsDubvs/Yw4Bvwpkqz+QDFW/aPW1P8Ghzj7ng8w+CSmfPjmtjz9aKiy+uVJFPwzc0j6JhV8/kFMVvw62zT+Mwlk+uAs0P9rYw77GDBRASaCTwB4uwr+NwOU/
lpc_rms=-32.15
pitch_keycenter=c#6
sample=SoloViolin1_tenuto_eighth_MF_C#6.opus
</region>

<region>
hikey=E7
hivel=127
lokey=c7
lovel=0
lpc=7fFqQdNmBMG/LSa/G34PQJG4aT9NVDw/C76rPwy6sT9K4G0+druyQO4928CnvoDBPHd6QT68bD8A+4q/P9fEPh6DMr63+wa/SwC3PnvvJL+lPzbAMhurQBu/hUCw3c/A
lpc_rms=-31.88
pitch_keycenter=C#7
sample=SoloViolin1_tenuto_eighth_MF_C#7.opus
</region>

<region>
hikey=d#4
hivel=127
lokey=d4
lovel=0
lpc=R7zrQKFIl8GsXaxBXndbweCRsUBUHh3A76YdQF+mGMDyW74/0yOov+hkqz8/JPM9gorpv7p3qD+Xoo4/CyFfwKPEP0Ag5h4/nWdGwE5AH0A0Yse/sXi6P2YOnb93eiI/
lpc_rms=-34.25
pitch_keycenter=d#4
sample=SoloViolin1_tenuto_eighth_MF_D#4.opus
</region>

<region>
hikey=d#5
hivel=127
lokey=d5
lovel=0
lpc=4lSPQMYVCcFtIOhAGVmSwBbPh0AnQmPAs2EMQMx5478nzcE/YJUBP4a857+gKv4/Sg37vx9S3z9PF1e/eEhiP1Z0ib8uHM0+nl7iPjM0GL+U8YU/asuZv9HXAj9mg3A+
lpc_rms=-30.72
pitch_keycenter=d#5
sample=SoloViolin1_tenuto_eighth_MF_D#5.opus
</region>

<region>
hikey=d#6
hivel=127
lokey=d6
lovel=0
lpc=+hViQfqTWsG7SRhBBEHzv/ta+D23YmU/ysE/P07/hb5KeUtAmXkNwMMbckBwM9i/4nwXQD370D7cZ5U/oSsxvv4kL0AFwei/xIBmQP1sP8E3xO5AXsAxv7J0D8BDQQhA
lpc_rms=-30.66
pitch_keycenter=d#6
sample=SoloViolin1_tenuto_eighth_MF_D#6.opus
</region>

<region>
hikey=f4
hivel=127
lokey=e4
lovel=0
lpc=00xfQfHlDcLLnhZCqcCwwec9I0GHEgTB0unPQNAtL8DUGfs+hIuLPyf7HMC8OiVA2UaPvzxi2L8K/4RAgCabwGD8nEBeCavAJid3QHksZT+DDnTA7xg5QC3HEcCwpsQ/
lpc_rms=-29.65
pitch_keycenter=f4
sample=SoloViolin1_tenuto_eighth_MF_F4.opus
</region>

<region>
hikey=f5
hivel=127
lokey=e5
lovel=0
lpc=8yaLQFADAsGl4NBATXrpv5/9QD9PvyTAXPlwQDC9PcBAR5c/C0JfP0J/s78xUbs/uEJov9YJLjzSt0M/Je5pvVaVlr7c8w2/6cvUPyfKrr+4ulY/eMb7vnA1TD8nc4u+
lpc_rms=-31.66
pitch_keycenter=f5
sample=SoloViolin1_tenuto_eighth_MF_F5.opus
</region>

<region>
hikey=f6
hivel=127
lokey=e6
lovel=0
lpc=xGVOQY6aTMFCySZBqiBAv2HKer58yIBACMGFv35uLT+j05A/Vc2vPtgrMj8Go4Y/uaKLP/czrb9wGXdALLEywI2HYUDdpjTB9rX1QAc+EcAx54bAhOKKQKgllcAivd0/
lpc_rms=-28.68
pitch_keycenter=f6
sample=SoloViolin1_tenuto_eighth_MF_F6.opus
</region>

<region>
hivel=127
key=g3
lovel=0
lpc=ldO9QZDxg8L9c5ZCgIQjwsUL6UAl6gjAKrgBQQMausC8w8Y/VscUwL/+kr8zw75A+xuhv6jCzsDelB5BOGQowb8/HEFQc7HAB/iDwJ2NOEH3ef/As6b0P94Spr/Tgbk/
lpc_rms=-26.94
sample=SoloViolin1_tenuto_eighth_MF_G3.opus
</region>

<region>
hikey=g4
hivel=127
lokey=f#4
lovel=0
lpc=1HJJQQS9AsKZZBpC8+fpwW9TlEHh32rBKtQ+QVIKtMC5psQ/M1cwP18bg8DZVO9Axf0bwZe100CznZ++Br5zwNsK2UBvkwfB1Uf7QC1DZ8BJ6Ly/EQI8QIFBI8DZvcw/
lpc_rms=-26.70
pitch_keycenter=g4
sample=SoloViolin1_tenuto_eighth_MF_G4.opus
</region>

<region>
hikey=g5
hivel=127
lokey=f#5
lovel=0
lpc=QWWZQKM4CcHI+wVBsXKnwPTbgkCU6zjAjN/8P3YjU7/wMlI/ecM3P4fGhr8fXWw/U9ZZvy5ynj82cfo+gJvdv7SNMkDjg7+/XJ9hvm4Urj9IX4S/YCvsPxDbBsDGmtU/
lpc_rms=-27.06
pitch_keycenter=g5
sample=SoloViolin1_tenuto_eighth_MF_G5.opus
</region>

<region>
hikey=g6
hivel=127
lokey=f#6
lovel=0
lpc=Q5k2QfXQuMBKlJhAw+kWwHaZ5D/VIcy+sM6iQJqaZ78lL8c/7+B6PxmfhT9z/Ko/uyjTP+k1JD5Jn11AT3EVwXktK0BIXye9t6+HP6tPIz/wWr8/V/w9wDGwFD+QSP0+
lpc_rms=-27.33
pitch_keycenter=g6
sample=SoloViolin1_tenuto_eighth_MF_G6.opus
</region>
</group>

<group>
group_label=FF
lpc_hicc1=127
lpc_locc1=85

<region>
hikey=a3
hivel=127
lokey=g#3
lovel=0
lpc=beglQZFj2MHTNPxBVvOswZf9DEEqACPArQX1P8T6/r+EzLY/mjZpuReuLcDvR4NAQRDvvwqKHsDtCK1ASL2ZwIuOMEA47QHACuYKQAhhIL8j9kK/HGwJPwrCXL5EVyo+
lpc_rms=-29.55
pitch_keycenter=a3
sample=SoloViolin1_tenuto_eighth_FF_A3.opus
</region>

<region>
hikey=a4
hivel=127
lokey=g#4
lovel=0
lpc=BcxNQYe1AsLUMRVCiCLSwRq1ekG0fkXBnkEoQfYKB8GatcZAb23kvxO4V8CPPnVABx6GvwWWwr8zbUJACgDQv9twJL+MKR4/MY2SPxI13L6XCB7AoRKMQCGhI8CAttM+
lpc_rms=-24.16
pitch_keycenter=a4
sample=SoloViolin1_tenuto_eighth_FF_A4.opus
</region>

<region>
hikey=a5
hivel=127
lokey=g#5
lovel=0
lpc=Kg32QKg19MDMJc9AfePmvm+xhz+UcUk/CimzP0L0pT+M/NU9EvzuPwh5Ij9wYMA/BJSlvjJzIkDgJlc/fwSOvuFHHEBEYBE/UHOSP0c5/j5Yl+I/gZCvP+XsuL8MlopA
lpc_rms=-22.43
pitch_keycenter=a5
sample=SoloViolin1_tenuto_eighth_FF_A5.opus
</region>

<region>
hikey=a6
hivel=127
lokey=g#6
lovel=0
lpc=rHg2Qe5W8sBKh8tAF5BEP54/jz71aIRAgKTuv3chYkC7Jqa+G3skQLHsNkAvdbM+uGw6QH/drsBACCPAdd2sQChks8BRliNAnqOyv75gf7/iLSlASGpNwD9hNUDn5lvA
lpc_rms=-23.62
pitch_keycenter=a6
sample=SoloViolin1_tenuto_eighth_FF_A6.opus
</region>

<region>
hikey=b3
hivel=127
lokey=a#3
lovel=0
lpc=t46RQTH3ScJUandCwowuwmmzmkGIzhvBf/sqQUoIEMG9KjlAS0ICQGyiwMA2sgxBXsPfwIvO3T9yBotAht8Iwf7FHUGmev/AMf6gQCFdDcAzF9c+OWx6PpxKDL8F1e4+
lpc_rms=-23.35
pitch_keycenter=b3
sample=SoloViolin1_tenuto_eighth_FF_B3.opus
</region>

<region>
hikey=b4
hivel=127
lokey=a#4
lovel=0
lpc=cwggQYY3oMFaFItBf2IZwVJllkCtT2rATSSBQDJTZcAULwlA9jo3vTu+kr+LK94+KGOCvwwlGUBC1WW/hhInPwo02b8X7PI//sg6wNDCA0Bjoo4/tkMAwFBc0z8w9XW+
lpc_rms=-21.90
pitch_keycenter=b4
sample=SoloViolin1_tenuto_eighth_FF_B4.opus
</region>

<region>
hikey=b5
hivel=127
lokey=a#5
lovel=0
lpc=KCkbQcxPD8GYSPpAN2q1v95Fdj+xLQVAZ3pAPw+ymz1csD5AgWzfvt2o6z/cLJI/tFaTPkgrwj/f3A5AVMhtvzU6TEC2iia/BE31P5EgfD8V1ZM/si/mvV49gkBajHLA
lpc_rms=-25.17
pitch_keycenter=b5
sample=SoloViolin1_tenuto_eighth_FF_B5.opus
</region>

<region>
hikey=b6
hivel=127
lokey=a#6
lovel=0
lpc=+P48QSQ6tMDZiLM/HNiDQPexzb4O8kzAH42NQCy497/cerU+Db+/QAuiqb/vB+Q/rYAiwR8DJkBlGiBAbeB2wGtXGz/vdXtAaK8pwJfSxj9vBwtAoeezwK4ZGj8V5KU/
lpc_rms=-28.89
pitch_keycenter=b6
sample=SoloViolin1_tenuto_eighth_FF_B6.opus
</region>

<region>
hikey=c#4
hivel=127
lokey=c4
lovel=0
lpc=dRarQa94Z8JURIpCZuQ2wgEhW0EMbCi9JtXdPnAtEcADQBBALielv45vhMABih1BVqsLwduAoD+jNtpALuHtwMpbYkB2yJe/KymKQH0ExMCenJdAybAvwGM1p7wvl/I+
lpc_rms=-21.86
pitch_keycenter=c#4
sample=SoloViolin1_tenuto_eighth_FF_C#4.opus
</region>

<region>
hikey=c#5
hivel=127
lokey=c5
lovel=0
lpc=7JyuQAyhLsG0DCRBGgG1wMtwP0DtME3AoMINQOrkfL8lZg4/lumDvnXcJj2q844/grC2v0JTST9SLy0/AglZv9iZsL3Fix2+XV0LPwE0kTxKQ6C+O8gGPVOtDj/jVkG9
lpc_rms=-27.93
pitch_keycenter=c#5
sample=SoloViolin1_tenuto_eighth_FF_C#5.opus
</region>

<region>
hikey=c#6
hivel=127
lokey=c6
lovel=0
lpc=snUZQe0TDsEeSAFBx6JiwKB+Q0BFJJm/73z4P/Z/pj7SOz0/vJRSPzDkeT68+5s/K4jqPjW1cT8aS9G7Ml+JPwtV8z4my0Q/vjpYP9BNZL7leF9AX1b9wPHyZUDG8a2/
lpc_rms=-25.89
pitch_keycenter=c#6
sample=SoloViolin1_tenuto_eighth_FF_C#6.opus
</region>

<region>
hikey=E7
hivel=127
lokey=c7
lovel=0
lpc=rlxHQWmXwcCdiM4+pks8P3NaVj/8B1q+ZUvpP/YadT8X+5o/ycd8QJX3jsBzrXPBOHhQQbJfBD+bF2g+L+mTPlYzQj93TkK/vF1Fvm5bPr8jvAbA6Kx8QHNTlUAyTMbA
lpc_rms=-28.78
pitch_keycenter=C#7
sample=SoloViolin1_tenuto_eighth_FF_C#7.opus
</region>

<region>
hikey=d#4
hivel=127
lokey=d4
lovel=0
lpc=rc/cQECZjMGl86dB9y94wQ8CBUHvV3zAFDsYQHnGyL8/eVU/ZdOsvm8tW78QjyVAS1dIwLN6lT/cYsc/m5piwE6Me0DluRnAJtpjPnrIij9cpS6/G8E+viIc2rytEd4+
lpc_rms=-34.44
pitch_keycenter=d#4
sample=SoloViolin1_tenuto_eighth_FF_D#4.opus
</region>

<region>
hikey=d#5
hivel=127
lokey=d5
lovel=0
lpc=dP6cQH4+H8G2wwtBNx+FwKA/H0DFlVjAt3OTQC33isBpvCxAYGYxv/dsdT28DQq/4p5sP5K5Gb7kHaA+FFmOv3gwpz+RQzS/IeqAPfsd8z4+4vQ9HTyTv58Qrz+++qe+
lpc_rms=-28.35
pitch_keycenter=d#5
sample=SoloViolin1_tenuto_eighth_FF_D#5.opus
</region>

<region>
hikey=d#6
hivel=127
lokey=d6
lovel=0
lpc=RrImQdKf5cA+q79AiWrevsfxPEDabKa+dEErQEUaGz/XNxe+rOkrQAW6DT+Xj0U/foaKP5LsGUCmfH6/cMMrQHv+Xj/TYYE/a227P+Sf4sDUsYZAgGIIwCFRLz8SC6q/
lpc_rms=-23.97
pitch_keycenter=d#6
sample=SoloViolin1_tenuto_eighth_FF_D#6.opus
</region>

<region>
hikey=f4
hivel=127
lokey=e4
lovel=0
lpc=ySsOQTxTrMEvGLxBs1B6wfr15UAWsWXA2vN/P7Qb1D/KggTATe5EQNwjncBxGa9AUPOawD5exD+tARZAomNbwAu0PECnuj/AMz5mQO2Ne7+X41rAp7x3QJoo378zQg4/
lpc_rms=-29.69
pitch_keycenter=f4
sample=SoloViolin1_tenuto_eighth_FF_F4.opus
</region>

<region>
hikey=f5
hivel=127
lokey=e5
lovel=0
lpc=boaFQMCq98CCddVAKu1RwJxkG0DcMyzA3EBKQDYQTsBephxArxl8v+RSJT/UJie/+ChWP+uoWr/QuKE/kys8v9dGFD+X7Ly/CyURQKpdq7/pfWA/5PDpvrlaBD63OIw+
lpc_rms=-29.94
pitch_keycenter=f5
sample=SoloViolin1_tenuto_eighth_FF_F5.opus
</region>

<region>
hikey=f6
hivel=127
lokey=e6
lovel=0
lpc=BdHwQEkio8AKiL9AllUsv7RwF0Df6ca+FSAXQJKYjz1Su4g/6nIyP5XoWj/XpTw/apDkPWeRyj+q/Iy+SzLEP0/rOT5e5p/AJm8zQEKBHcBJ9AO/hZoov5eYBT/Z0VC/
lpc_rms=-27.10
pitch_keycenter=f6
sample=SoloViolin1_tenuto_eighth_FF_F6.opus
</region>

<region>
hivel=127
key=g3
lovel=0
lpc=VSKLQcYeP8JxdGpCWF8gwgstVUGUrcU/PJFywII2i75tl0JA06gLP0k/AMG23BhBLeZfwLZ1AsABVzhAT3HAv0eFzz9mg0PA2IwVQDhIGEB9npvArhlXQNLAx79ITDs/
lpc_rms=-24.87
sample=SoloViolin1_tenuto_eighth_FF_G3.opus
</region>

<region>
hikey=g4
hivel=127
lokey=f#4
lovel=0
lpc=e45FQVi6BMKswyFCf+XzwUw4j0Et9WHBi555QU5HRsGlToxA9CaeP/uF+rsL2JPAWCefQATpd8CSQ9VArX8awZWAIEHhugLBwsyNQNlNSLxgOFnANV+MQC1cPcCeHJ0/
lpc_rms=-21.74
pitch_keycenter=g4
sample=SoloViolin1_tenuto_eighth_FF_G4.opus
</region>

<region>
hikey=g5
hivel=127
lokey=f#5
lovel=0
lpc=tklsQPXEssCzT5FAq9L0v1AqjD9MP0C/a9bKP4Nkw7+5YK0/s3E7vavs2T6bmVm/8JF6P8YoJ793R2g/Q0oAP4nvEb9ehmY+8pySPgw8vL2tZXc+ag03P9Tslr8imaI/
lpc_rms=-25.26
pitch_keycenter=g5
sample=SoloViolin1_tenuto_eighth_FF_G5.opus
</region>

<region>
hikey=g6
hivel=127
lokey=f#6
lovel=0
lpc=Xe3nQEWcCMAQ5TdAXBaBvgiHsz+43xG/ffcOQDrjET83mBS/UmoVQFDBvDsTsMs/dw0FP2oLoD+sz/s/0miGwHhUxL6/Bk0+mWw0vsiouD6cE8A/gnXDvu0gqr7E77Y/
lpc_rms=-27.17
pitch_keycenter=g6
sample=SoloViolin1_tenuto_eighth_FF_G6.opus
</region>
</group>